<svg width="20832" height="6029" viewBox="0 0 20832 6029" fill="none" xmlns="http://www.w3.org/2000/svg">
<path d="M13193.8 279.921L13524.1 1.47597L13847.1 471.651L13480.9 866.063L13631.5 470.925L13396.5 590.96L13193.8 279.921Z" fill="#FF188C" stroke="#FFF0D7" stroke-width="2"/>
<path d="M14458.2 1525.45C14244.6 1723.87 13956 1985.42 13956 1985.42L13847.8 1223.33C13847.8 1223.33 14901.4 665.014 15055.3 1145.86C15140.4 1411.84 15152 1473.73 14947.7 1859.96C14743.4 2246.2 14384.4 2693.38 14384.4 2693.38L15399 2314.6L15218.6 3001.13L13847.8 3001.13L13956 2535.56C13956 2535.56 14479.1 2021.48 14618.8 1859.96C14758.5 1698.45 14671.8 1327.03 14458.2 1525.45Z" fill="#FF188C" stroke="#FFF0D7" stroke-width="2"/>
<path fill-rule="evenodd" clip-rule="evenodd" d="M15604.5 1443.82C15628.8 1199.85 15969.5 813.978 16375.5 871.811C16781.1 929.585 16975.7 953.193 16976.1 953.241L16822.5 1442.99C16821.7 1442.62 16630.8 1357.75 16324.8 1225.47C16018.2 1092.92 15844.3 1378.4 15925.7 1626.61C16006.8 1873.92 16027.5 1945.49 16027.7 1946L16610.5 1830.38L17088.8 2245.43L16845.1 3002.56H16565.4V3003.4H15915.1L15546.6 2677.14C15546.7 2675.56 15580.3 1687.6 15604.5 1443.82ZM16118.6 2345.78L16132.2 2646.8H16565.4L16520.4 2174.3L16118.6 2345.78Z" fill="#FF188C" stroke="#FFF0D7" stroke-width="2"/>
<path d="M12622.7 1030.37H12245.5L12460 3036.98H11694.5L11783.2 2122.03L11435.6 2173.07L11380.1 2872.05C11380.1 2872.05 10991.8 2739.01 10629.4 2632.51C10267 2526.02 10311.7 2047.3 10555.5 1972.81C10799 1898.36 10954.7 1866.82 10954.9 1866.78C10954.9 1866.78 11025.1 1163.88 11028.8 1073.56C11032.5 983.243 10821.7 849.731 10810.6 912.56C10799.5 975.378 10762.6 1560.26 10762.6 1560.49L10304 1073.56C10300.7 771.326 10356.6 562.192 10548.1 563.073C10764.6 563.074 11065.6 563.073 11191.5 563.072C11398.6 563.07 11435.6 834.024 11435.6 1089.27V1768.61L11838.7 1686.15L11897.9 1030.37H11602V563.072H12622.7V1030.37ZM8935.46 563.932H8942.81L8942.81 563.947L10190.6 566.551L10106.7 1033.91H9908.82V1747.77L10549.8 1581.77L10336.8 2050.33L9876.01 2039.17L9750.74 2868.97C9514.77 2816.28 9026.34 2675.16 8960.36 2532.2C8897.94 2410.93 8843.27 2142.56 9123.87 2039.17L9675.13 1819.95V1033.91L8877.88 1031.56V1031.55H8416.42L8658.56 1701.2C8680.77 1890.75 8612.52 2232.75 8161.82 2084.3L8803.94 3006.13H7986.14L7622.67 1629.37H7961.91C7989.39 1758.39 8018.73 1772.31 8070.95 1796.97C8161.82 1820.92 8325.38 1820.92 8252.68 1629.37L8028.54 1042.75H7375.6L7375.6 1042.65L7093.84 1045.29L7352.76 3007.1H6542.81L6758.57 1045.29H6277.25L6502.97 3007.1L5719.58 2987.18L5806.04 2112.22L5665.39 2056.79C5766.92 2767.18 5367.24 3007.63 5078.99 3008.12C4486.93 3031.3 3946.04 2711.06 3816 2351.42L4277.46 1914.15C4411.74 2368.51 4724.72 2440.79 4724.72 2440.79C4834.76 2465.63 5051.3 2490.48 5225.23 2337.85C5399.17 2185.21 5395.83 1917.22 5104.54 1894.13C4990.05 1885.06 4693.09 2003.42 4692.78 2003.55L4582.74 1723.12C4582.87 1723.05 4696.21 1667.53 4795.72 1591.78C5047.74 1399.94 4976.75 1133.87 4795.72 1098.38C4614.69 1062.88 4362.81 1250.72 4188.72 1393L4000.58 828.598C4349.43 541.297 4924.78 568.573 5078.99 598.619C5714.13 755.067 5359.02 1666.01 5359.02 1666.01L5860.76 1561.55L5922.07 1045.29H5587.3V563.963H7392.48L7392.48 563.932H8877.88V563.812L8935.46 563.932Z" fill="#FF188C"/>
<path d="M12622.7 1030.37V1031.37H12623.7V1030.37H12622.7ZM12245.5 1030.37V1029.37H12244.4L12244.5 1030.47L12245.5 1030.37ZM12460 3036.98V3037.98H12461.1L12461 3036.87L12460 3036.98ZM11694.5 3036.98L11693.5 3036.88L11693.4 3037.98H11694.5V3036.98ZM11783.2 2122.03L11784.2 2122.12L11784.3 2120.85L11783.1 2121.04L11783.2 2122.03ZM11435.6 2173.07L11435.5 2172.08L11434.7 2172.2L11434.6 2172.99L11435.6 2173.07ZM11380.1 2872.05L11379.8 2873L11381 2873.41L11381.1 2872.13L11380.1 2872.05ZM10629.4 2632.51L10629.1 2633.47V2633.47L10629.4 2632.51ZM10555.5 1972.81L10555.8 1973.76V1973.76L10555.5 1972.81ZM10954.9 1866.78L10955.1 1867.76L10955.8 1867.61L10955.8 1866.88L10954.9 1866.78ZM11028.8 1073.56L11029.8 1073.6V1073.6L11028.8 1073.56ZM10810.6 912.56L10809.6 912.387V912.387L10810.6 912.56ZM10762.6 1560.49L10761.8 1561.17L10763.4 1562.85L10763.6 1560.55L10762.6 1560.49ZM10304 1073.56L10303 1073.58L10303 1073.97L10303.3 1074.25L10304 1073.56ZM10548.1 563.073L10548.1 564.073H10548.1V563.073ZM11191.5 563.072V562.072V562.072V563.072ZM11435.6 1089.27H11436.6V1089.27H11435.6ZM11435.6 1768.61H11434.6V1769.84L11435.8 1769.59L11435.6 1768.61ZM11838.7 1686.15L11838.9 1687.13L11839.6 1686.98L11839.7 1686.24L11838.7 1686.15ZM11897.9 1030.37L11898.9 1030.45L11899 1029.37H11897.9V1030.37ZM11602 1030.37H11601V1031.37H11602V1030.37ZM11602 563.072V562.072H11601V563.072H11602ZM12622.7 563.072H12623.7V562.072H12622.7V563.072ZM8935.46 563.932L8935.46 564.932H8935.46V563.932ZM8942.81 563.932L8943.81 563.999L8943.88 562.932H8942.81V563.932ZM8942.81 563.947L8941.82 563.881L8941.74 564.945L8942.81 564.947L8942.81 563.947ZM10190.6 566.551L10191.6 566.727L10191.8 565.553L10190.6 565.551L10190.6 566.551ZM10106.7 1033.91V1034.91H10107.6L10107.7 1034.08L10106.7 1033.91ZM9908.82 1033.91V1032.91H9907.82V1033.91H9908.82ZM9908.82 1747.77H9907.82V1749.06L9909.07 1748.74L9908.82 1747.77ZM10549.8 1581.77L10550.7 1582.19L10551.6 1580.28L10549.5 1580.8L10549.8 1581.77ZM10336.8 2050.33L10336.8 2051.33L10337.4 2051.35L10337.7 2050.75L10336.8 2050.33ZM9876.01 2039.17L9876.03 2038.17L9875.15 2038.15L9875.02 2039.03L9876.01 2039.17ZM9750.74 2868.97L9750.52 2869.95L9751.57 2870.18L9751.73 2869.12L9750.74 2868.97ZM8960.36 2532.2L8961.26 2531.78L8961.26 2531.76L8961.25 2531.74L8960.36 2532.2ZM9123.87 2039.17L9124.22 2040.11L9124.23 2040.11L9124.24 2040.1L9123.87 2039.17ZM9675.13 1819.95L9675.5 1820.88L9676.13 1820.63V1819.95H9675.13ZM9675.13 1033.91H9676.13V1032.91L9675.13 1032.91L9675.13 1033.91ZM8877.88 1031.56H8876.88V1032.56L8877.87 1032.56L8877.88 1031.56ZM8877.88 1031.55H8878.88V1030.55H8877.88V1031.55ZM8416.42 1031.55V1030.55H8414.99L8415.47 1031.89L8416.42 1031.55ZM8658.56 1701.2L8659.55 1701.08L8659.54 1700.97L8659.5 1700.86L8658.56 1701.2ZM8161.82 2084.3L8162.13 2083.35L8159.28 2082.41L8161 2084.87L8161.82 2084.3ZM8803.94 3006.13V3007.13H8805.86L8804.76 3005.55L8803.94 3006.13ZM7986.14 3006.13L7985.17 3006.38L7985.37 3007.13H7986.14V3006.13ZM7622.67 1629.37V1628.37H7621.37L7621.71 1629.62L7622.67 1629.37ZM7961.91 1629.37L7962.89 1629.16L7962.72 1628.37H7961.91V1629.37ZM8070.95 1796.97L8070.52 1797.88L8070.61 1797.92L8070.69 1797.94L8070.95 1796.97ZM8252.68 1629.37L8253.62 1629.01L8253.62 1629.01L8252.68 1629.37ZM8028.54 1042.75L8029.47 1042.39L8029.22 1041.75H8028.54V1042.75ZM7375.6 1042.75L7374.6 1042.72L7374.57 1043.75H7375.6V1042.75ZM7375.6 1042.65L7376.6 1042.68L7376.64 1041.64L7375.6 1041.65L7375.6 1042.65ZM7093.84 1045.29L7093.83 1044.29L7092.7 1044.3L7092.85 1045.42L7093.84 1045.29ZM7352.76 3007.1V3008.1H7353.9L7353.75 3006.97L7352.76 3007.1ZM6542.81 3007.1L6541.81 3006.99L6541.69 3008.1H6542.81V3007.1ZM6758.57 1045.29L6759.57 1045.4L6759.69 1044.29H6758.57V1045.29ZM6277.25 1045.29V1044.29H6276.13L6276.26 1045.4L6277.25 1045.29ZM6502.97 3007.1L6502.95 3008.1L6504.1 3008.13L6503.97 3006.98L6502.97 3007.1ZM5719.58 2987.18L5718.58 2987.08L5718.48 2988.15L5719.55 2988.18L5719.58 2987.18ZM5806.04 2112.22L5807.04 2112.32L5807.11 2111.57L5806.41 2111.29L5806.04 2112.22ZM5665.39 2056.79L5665.76 2055.86L5664.16 2055.23L5664.4 2056.94L5665.39 2056.79ZM5078.99 3008.11L5078.99 3007.11L5078.97 3007.12L5078.95 3007.12L5078.99 3008.11ZM3816 2351.42L3815.31 2350.69L3814.84 2351.14L3815.06 2351.76L3816 2351.42ZM4277.46 1914.15L4278.42 1913.87L4277.96 1912.3L4276.77 1913.43L4277.46 1914.15ZM4724.72 2440.79L4724.5 2441.76L4724.5 2441.76L4724.72 2440.79ZM5225.23 2337.85L5225.89 2338.6V2338.6L5225.23 2337.85ZM5104.54 1894.13L5104.62 1893.14V1893.14L5104.54 1894.13ZM4692.78 2003.55L4691.85 2003.91L4692.21 2004.85L4693.15 2004.48L4692.78 2003.55ZM4582.74 1723.12L4582.3 1722.22L4581.47 1722.63L4581.8 1723.49L4582.74 1723.12ZM4795.72 1591.78L4796.32 1592.58V1592.58L4795.72 1591.78ZM4795.72 1098.38L4795.91 1097.39V1097.39L4795.72 1098.38ZM4188.72 1393L4187.77 1393.32L4188.23 1394.69L4189.35 1393.78L4188.72 1393ZM4000.58 828.598L3999.95 827.826L3999.42 828.262L3999.64 828.914L4000.58 828.598ZM5078.99 598.619L5079.23 597.648L5079.2 597.642L5079.18 597.637L5078.99 598.619ZM5359.02 1666.01L5358.09 1665.64L5357.42 1667.36L5359.22 1666.98L5359.02 1666.01ZM5860.76 1561.55L5860.96 1562.53L5861.67 1562.38L5861.75 1561.67L5860.76 1561.55ZM5922.07 1045.29L5923.06 1045.4L5923.19 1044.29H5922.07V1045.29ZM5587.3 1045.29H5586.3V1046.29H5587.3V1045.29ZM5587.3 563.963V562.963H5586.3V563.963H5587.3ZM7392.48 563.963V564.963H7393.45L7393.48 563.995L7392.48 563.963ZM7392.48 563.932V562.932H7391.51L7391.48 563.9L7392.48 563.932ZM8877.88 563.932V564.932H8878.88V563.932H8877.88ZM8877.88 563.812L8877.88 562.812L8876.88 562.81V563.812H8877.88ZM12622.7 1030.37V1029.37H12245.5V1030.37V1031.37H12622.7V1030.37ZM12245.5 1030.37L12244.5 1030.47L12459 3037.08L12460 3036.98L12461 3036.87L12246.5 1030.26L12245.5 1030.37ZM12460 3036.98V3035.98H11694.5V3036.98V3037.98H12460V3036.98ZM11694.5 3036.98L11695.5 3037.07L11784.2 2122.12L11783.2 2122.03L11782.2 2121.93L11693.5 3036.88L11694.5 3036.98ZM11783.2 2122.03L11783.1 2121.04L11435.5 2172.08L11435.6 2173.07L11435.7 2174.06L11783.4 2123.01L11783.2 2122.03ZM11435.6 2173.07L11434.6 2172.99L11379.1 2871.97L11380.1 2872.05L11381.1 2872.13L11436.6 2173.15L11435.6 2173.07ZM11380.1 2872.05C11380.5 2871.1 11380.5 2871.1 11380.5 2871.1C11380.4 2871.1 11380.4 2871.1 11380.4 2871.1C11380.4 2871.09 11380.4 2871.09 11380.4 2871.08C11380.3 2871.06 11380.3 2871.04 11380.2 2871.01C11380 2870.94 11379.7 2870.85 11379.3 2870.72C11378.6 2870.46 11377.5 2870.08 11376 2869.58C11373.1 2868.58 11368.7 2867.1 11363.1 2865.18C11351.7 2861.33 11335.1 2855.72 11314.1 2848.65C11272 2834.51 11212.2 2814.55 11141 2791.27C10998.6 2744.69 10810.9 2684.8 10629.7 2631.55L10629.4 2632.51L10629.1 2633.47C10810.3 2686.71 10998 2746.6 11140.4 2793.17C11211.6 2816.45 11271.4 2836.41 11313.5 2850.55C11334.5 2857.61 11351.1 2863.23 11362.4 2867.07C11368.1 2868.99 11372.4 2870.48 11375.4 2871.48C11376.8 2871.98 11377.9 2872.36 11378.7 2872.61C11379.1 2872.74 11379.3 2872.83 11379.5 2872.9C11379.6 2872.93 11379.7 2872.96 11379.7 2872.97C11379.8 2872.98 11379.8 2872.99 11379.8 2872.99C11379.8 2872.99 11379.8 2872.99 11379.8 2872.99C11379.8 2873 11379.8 2873 11380.1 2872.05ZM10629.4 2632.51L10629.7 2631.55C10449 2578.45 10369.8 2432.57 10366.1 2290.63C10362.5 2148.6 10434.5 2010.83 10555.8 1973.76L10555.5 1972.81L10555.2 1971.85C10432.7 2009.27 10360.5 2148.11 10364.1 2290.69C10367.8 2433.35 10447.5 2580.08 10629.1 2633.47L10629.4 2632.51ZM10555.5 1972.81L10555.8 1973.76C10799.3 1899.33 10954.9 1867.8 10955.1 1867.76L10954.9 1866.78L10954.7 1865.8C10954.4 1865.85 10798.8 1897.39 10555.2 1971.85L10555.5 1972.81ZM10954.9 1866.78C10955.8 1866.88 10955.8 1866.88 10955.8 1866.87C10955.9 1866.87 10955.9 1866.86 10955.9 1866.85C10955.9 1866.83 10955.9 1866.8 10955.9 1866.75C10955.9 1866.67 10955.9 1866.54 10955.9 1866.37C10955.9 1866.03 10956 1865.53 10956.1 1864.86C10956.2 1863.53 10956.4 1861.55 10956.6 1858.96C10957.2 1853.79 10957.9 1846.2 10958.9 1836.5C10960.8 1817.1 10963.6 1789.29 10966.9 1755.64C10973.5 1688.33 10982.4 1597.64 10991.4 1504.14C11009.5 1317.14 11028 1118.8 11029.8 1073.6L11028.8 1073.56L11027.8 1073.52C11026 1118.64 11007.5 1316.91 10989.5 1503.94C10980.4 1597.45 10971.5 1688.14 10964.9 1755.44C10961.6 1789.1 10958.8 1816.91 10956.9 1836.3C10955.9 1846 10955.2 1853.6 10954.6 1858.77C10954.4 1861.35 10954.2 1863.33 10954.1 1864.66C10954 1865.33 10953.9 1865.83 10953.9 1866.17C10953.9 1866.34 10953.9 1866.47 10953.9 1866.55C10953.9 1866.6 10953.9 1866.63 10953.9 1866.65C10953.9 1866.66 10953.9 1866.67 10953.9 1866.67C10953.9 1866.68 10953.9 1866.68 10954.9 1866.78ZM11028.8 1073.56L11029.8 1073.6C11030.8 1050.66 11018.1 1025.14 10998.6 1000.84C10979.1 976.513 10952.7 953.256 10925.8 934.806C10899 916.364 10871.6 902.67 10850.2 897.537C10839.5 894.974 10830.1 894.515 10823 896.783C10819.5 897.922 10816.5 899.754 10814.2 902.362C10811.9 904.971 10810.4 908.307 10809.6 912.387L10810.6 912.56L10811.6 912.734C10812.3 908.96 10813.7 905.976 10815.7 903.682C10817.7 901.387 10820.4 899.734 10823.6 898.687C10830.2 896.583 10839.1 896.953 10849.7 899.482C10870.8 904.535 10897.9 918.082 10924.7 936.455C10951.5 954.819 10977.7 977.948 10997.1 1002.09C11016.4 1026.27 11028.7 1051.31 11027.8 1073.52L11028.8 1073.56ZM10810.6 912.56L10809.6 912.387C10806.9 928.151 10802.5 976.546 10797.4 1040.19C10792.4 1103.86 10786.8 1182.87 10781.4 1259.93C10770.8 1414.03 10761.6 1560.31 10761.6 1560.43L10762.6 1560.49L10763.6 1560.55C10763.6 1560.44 10772.8 1414.16 10783.4 1260.06C10788.8 1183.01 10794.4 1104.01 10799.4 1040.35C10804.5 976.65 10808.9 928.379 10811.6 912.734L10810.6 912.56ZM10762.6 1560.49L10763.3 1559.8L10304.7 1072.88L10304 1073.56L10303.3 1074.25L10761.8 1561.17L10762.6 1560.49ZM10304 1073.56L10305 1073.55C10303.3 922.463 10316.5 794.791 10353.9 705.034C10372.6 660.17 10397.4 624.831 10429.3 600.762C10461.2 576.702 10500.4 563.854 10548.1 564.073L10548.1 563.073L10548.1 562.073C10500 561.852 10460.4 574.814 10428.1 599.165C10395.8 623.506 10370.9 659.175 10352.1 704.264C10314.5 794.413 10301.3 922.427 10303 1073.58L10304 1073.56ZM10548.1 563.073V564.073C10764.6 564.074 11065.6 564.073 11191.5 564.072V563.072V562.072C11065.6 562.073 10764.6 562.074 10548.1 562.073V563.073ZM11191.5 563.072V564.072C11243.1 564.072 11284 580.918 11316.4 610.138C11348.8 639.378 11372.7 681.057 11390.3 730.785C11425.4 830.258 11434.6 961.662 11434.6 1089.27H11435.6H11436.6C11436.6 961.629 11427.4 829.934 11392.2 730.12C11374.6 680.205 11350.5 638.193 11317.7 608.653C11284.9 579.094 11243.5 562.072 11191.5 562.072V563.072ZM11435.6 1089.27H11434.6V1768.61H11435.6H11436.6V1089.27H11435.6ZM11435.6 1768.61L11435.8 1769.59L11838.9 1687.13L11838.7 1686.15L11838.5 1685.17L11435.4 1767.63L11435.6 1768.61ZM11838.7 1686.15L11839.7 1686.24L11898.9 1030.45L11897.9 1030.37L11896.9 1030.28L11837.7 1686.06L11838.7 1686.15ZM11897.9 1030.37V1029.37H11602V1030.37V1031.37H11897.9V1030.37ZM11602 1030.37H11603V563.072H11602H11601V1030.37H11602ZM11602 563.072V564.072H12622.7V563.072V562.072H11602V563.072ZM12622.7 563.072H12621.7V1030.37H12622.7H12623.7V563.072H12622.7ZM8935.46 563.932V564.932H8942.81V563.932V562.932H8935.46V563.932ZM8942.81 563.932L8941.82 563.866L8941.82 563.881L8942.81 563.947L8943.81 564.014L8943.81 563.999L8942.81 563.932ZM8942.81 563.947L8942.81 564.947L10190.6 567.551L10190.6 566.551L10190.6 565.551L8942.82 562.947L8942.81 563.947ZM10190.6 566.551L10189.6 566.374L10105.8 1033.73L10106.7 1033.91L10107.7 1034.08L10191.6 566.727L10190.6 566.551ZM10106.7 1033.91V1032.91H9908.82V1033.91V1034.91H10106.7V1033.91ZM9908.82 1033.91H9907.82V1747.77H9908.82H9909.82V1033.91H9908.82ZM9908.82 1747.77L9909.07 1748.74L10550 1582.74L10549.8 1581.77L10549.5 1580.8L9908.57 1746.8L9908.82 1747.77ZM10549.8 1581.77L10548.9 1581.36L10335.9 2049.92L10336.8 2050.33L10337.7 2050.75L10550.7 1582.19L10549.8 1581.77ZM10336.8 2050.33L10336.8 2049.33L9876.03 2038.17L9876.01 2039.17L9875.98 2040.17L10336.8 2051.33L10336.8 2050.33ZM9876.01 2039.17L9875.02 2039.03L9749.75 2868.82L9750.74 2868.97L9751.73 2869.12L9877 2039.32L9876.01 2039.17ZM9750.74 2868.97L9750.96 2868C9633.01 2841.66 9451.95 2793.22 9292.16 2733.5C9212.25 2703.64 9137.7 2670.97 9079.01 2636.86C9020.27 2602.71 8977.62 2567.22 8961.26 2531.78L8960.36 2532.2L8959.45 2532.62C8976.08 2568.66 9019.23 2604.42 9078.01 2638.59C9136.83 2672.78 9211.5 2705.5 9291.46 2735.37C9451.36 2795.13 9632.51 2843.6 9750.52 2869.95L9750.74 2868.97ZM8960.36 2532.2L8961.25 2531.74C8930.1 2471.23 8900.9 2374.03 8914.47 2279.12C8928.03 2184.3 8984.27 2091.67 9124.22 2040.11L9123.87 2039.17L9123.53 2038.24C8982.87 2090.06 8926.15 2183.31 8912.49 2278.84C8898.85 2374.28 8928.2 2471.9 8959.47 2532.66L8960.36 2532.2ZM9123.87 2039.17L9124.24 2040.1L9675.5 1820.88L9675.13 1819.95L9674.76 1819.02L9123.5 2038.25L9123.87 2039.17ZM9675.13 1819.95H9676.13V1033.91H9675.13H9674.13V1819.95H9675.13ZM9675.13 1033.91L9675.13 1032.91L8877.88 1030.56L8877.88 1031.56L8877.87 1032.56L9675.13 1034.91L9675.13 1033.91ZM8877.88 1031.56H8878.88V1031.55H8877.88H8876.88V1031.56H8877.88ZM8877.88 1031.55V1030.55H8416.42V1031.55V1032.55H8877.88V1031.55ZM8416.42 1031.55L8415.47 1031.89L8657.62 1701.54L8658.56 1701.2L8659.5 1700.86L8417.36 1031.21L8416.42 1031.55ZM8658.56 1701.2L8657.56 1701.31C8668.66 1795.98 8657.13 1928.55 8586.74 2018.88C8551.57 2064.02 8501.68 2098.64 8432.5 2112.74C8363.29 2126.84 8274.7 2120.42 8162.13 2083.35L8161.82 2084.3L8161.5 2085.25C8274.29 2122.39 8363.24 2128.89 8432.89 2114.7C8502.57 2100.5 8552.86 2065.61 8588.32 2020.11C8659.17 1929.18 8670.67 1795.97 8659.55 1701.08L8658.56 1701.2ZM8161.82 2084.3L8161 2084.87L8803.12 3006.7L8803.94 3006.13L8804.76 3005.55L8162.64 2083.72L8161.82 2084.3ZM8803.94 3006.13V3005.13H7986.14V3006.13V3007.13H8803.94V3006.13ZM7986.14 3006.13L7987.11 3005.87L7623.64 1629.11L7622.67 1629.37L7621.71 1629.62L7985.17 3006.38L7986.14 3006.13ZM7622.67 1629.37V1630.37H7961.91V1629.37V1628.37H7622.67V1629.37ZM7961.91 1629.37L7960.93 1629.58C7974.68 1694.12 7988.92 1730.04 8006.36 1752.91C8023.82 1775.82 8044.43 1785.55 8070.52 1797.88L8070.95 1796.97L8071.38 1796.07C8045.25 1783.73 8025.08 1774.17 8007.95 1751.7C7990.79 1729.19 7976.62 1693.64 7962.89 1629.16L7961.91 1629.37ZM8070.95 1796.97L8070.69 1797.94C8093.48 1803.94 8120.82 1808.45 8147.89 1808.82C8174.95 1809.2 8201.81 1805.45 8223.59 1794.88C8245.4 1784.29 8262.09 1766.86 8268.7 1739.97C8275.3 1713.13 8271.83 1677 8253.62 1629.01L8252.68 1629.37L8251.75 1629.72C8269.89 1677.51 8273.23 1713.21 8266.76 1739.49C8260.31 1765.73 8244.06 1782.72 8222.71 1793.08C8201.33 1803.46 8174.81 1807.2 8147.92 1806.82C8121.03 1806.45 8093.86 1801.97 8071.2 1796.01L8070.95 1796.97ZM8252.68 1629.37L8253.62 1629.01L8029.47 1042.39L8028.54 1042.75L8027.6 1043.11L8251.75 1629.72L8252.68 1629.37ZM8028.54 1042.75V1041.75H7375.6V1042.75V1043.75H8028.54V1042.75ZM7375.6 1042.75L7376.6 1042.78L7376.6 1042.68L7375.6 1042.65L7374.6 1042.62L7374.6 1042.72L7375.6 1042.75ZM7375.6 1042.65L7375.6 1041.65L7093.83 1044.29L7093.84 1045.29L7093.85 1046.29L7375.61 1043.65L7375.6 1042.65ZM7093.84 1045.29L7092.85 1045.42L7351.77 3007.23L7352.76 3007.1L7353.75 3006.97L7094.83 1045.16L7093.84 1045.29ZM7352.76 3007.1V3006.1H6542.81V3007.1V3008.1H7352.76V3007.1ZM6542.81 3007.1L6543.8 3007.21L6759.57 1045.4L6758.57 1045.29L6757.58 1045.18L6541.81 3006.99L6542.81 3007.1ZM6758.57 1045.29V1044.29H6277.25V1045.29V1046.29H6758.57V1045.29ZM6277.25 1045.29L6276.26 1045.4L6501.98 3007.21L6502.97 3007.1L6503.97 3006.98L6278.24 1045.17L6277.25 1045.29ZM6502.97 3007.1L6503 3006.1L5719.6 2986.18L5719.58 2987.18L5719.55 2988.18L6502.95 3008.1L6502.97 3007.1ZM5719.58 2987.18L5720.57 2987.28L5807.04 2112.32L5806.04 2112.22L5805.05 2112.13L5718.58 2987.08L5719.58 2987.18ZM5806.04 2112.22L5806.41 2111.29L5665.76 2055.86L5665.39 2056.79L5665.03 2057.73L5805.68 2113.15L5806.04 2112.22ZM5665.39 2056.79L5664.4 2056.94C5715.14 2411.93 5640.62 2649.33 5517.59 2798.03C5394.54 2946.74 5222.85 3006.87 5078.99 3007.11L5078.99 3008.11L5078.99 3009.11C5223.37 3008.87 5395.65 2948.53 5519.13 2799.3C5642.61 2650.06 5717.17 2412.04 5666.38 2056.65L5665.39 2056.79ZM5078.99 3008.11L5078.95 3007.12C4783.11 3018.7 4500.05 2944.48 4274.71 2822.45C4049.36 2700.4 3881.85 2530.59 3816.94 2351.08L3816 2351.42L3815.06 2351.76C3880.19 2531.89 4048.14 2702.02 4273.76 2824.21C4499.4 2946.4 4782.81 3020.71 5079.03 3009.11L5078.99 3008.11ZM3816 2351.42L3816.69 2352.15L4278.15 1914.88L4277.46 1914.15L4276.77 1913.43L3815.31 2350.69L3816 2351.42ZM4277.46 1914.15L4276.5 1914.43C4343.7 2141.82 4455.64 2273.65 4550.83 2348.64C4598.42 2386.13 4641.81 2409.41 4673.32 2423.31C4689.07 2430.26 4701.85 2434.87 4710.7 2437.75C4715.13 2439.18 4718.57 2440.18 4720.91 2440.83C4722.08 2441.15 4722.97 2441.38 4723.58 2441.54C4723.88 2441.61 4724.11 2441.67 4724.26 2441.7C4724.34 2441.72 4724.4 2441.74 4724.44 2441.75C4724.46 2441.75 4724.47 2441.76 4724.48 2441.76C4724.49 2441.76 4724.49 2441.76 4724.49 2441.76C4724.5 2441.76 4724.5 2441.76 4724.72 2440.79C4724.95 2439.81 4724.95 2439.81 4724.95 2439.81C4724.94 2439.81 4724.94 2439.81 4724.94 2439.81C4724.93 2439.81 4724.91 2439.8 4724.9 2439.8C4724.86 2439.79 4724.8 2439.78 4724.73 2439.76C4724.58 2439.73 4724.36 2439.67 4724.07 2439.6C4723.48 2439.45 4722.6 2439.22 4721.44 2438.9C4719.13 2438.26 4715.72 2437.27 4711.32 2435.84C4702.53 2432.99 4689.81 2428.4 4674.13 2421.48C4642.75 2407.63 4599.51 2384.44 4552.07 2347.07C4457.2 2272.33 4345.5 2140.85 4278.42 1913.87L4277.46 1914.15ZM4724.72 2440.79L4724.5 2441.76C4834.62 2466.63 5051.58 2491.56 5225.89 2338.6L5225.23 2337.85L5224.57 2337.09C5051.01 2489.4 4834.91 2464.64 4724.94 2439.81L4724.72 2440.79ZM5225.23 2337.85L5225.89 2338.6C5313.05 2262.11 5355.91 2156.62 5340.33 2067.24C5332.54 2022.52 5310.13 1981.87 5271.37 1950.96C5232.62 1920.05 5177.59 1898.92 5104.62 1893.14L5104.54 1894.13L5104.46 1895.13C5177.14 1900.89 5231.76 1921.92 5270.12 1952.52C5308.48 1983.12 5330.65 2023.33 5338.36 2067.58C5353.79 2156.12 5311.35 2260.95 5224.57 2337.09L5225.23 2337.85ZM5104.54 1894.13L5104.62 1893.14C5075.84 1890.85 5035.69 1896.58 4991.73 1906.41C4947.74 1916.24 4899.85 1930.2 4855.53 1944.44C4766.91 1972.92 4692.57 2002.55 4692.41 2002.62L4692.78 2003.55L4693.15 2004.48C4693.29 2004.42 4767.59 1974.81 4856.15 1946.34C4900.43 1932.11 4948.26 1918.17 4992.16 1908.36C5036.09 1898.54 5076 1892.87 5104.46 1895.13L5104.54 1894.13ZM4692.78 2003.55L4693.71 2003.18L4583.67 1722.76L4582.74 1723.12L4581.8 1723.49L4691.85 2003.91L4692.78 2003.55ZM4582.74 1723.12L4583.18 1724.02C4583.32 1723.95 4696.73 1668.39 4796.32 1592.58L4795.72 1591.78L4795.11 1590.99C4695.68 1666.67 4582.42 1722.16 4582.3 1722.22L4582.74 1723.12ZM4795.72 1591.78L4796.32 1592.58C4922.55 1496.49 4968.02 1381.7 4959.11 1286.36C4950.2 1191.03 4886.91 1115.24 4795.91 1097.39L4795.72 1098.38L4795.53 1099.36C4885.56 1117.01 4948.28 1192 4957.12 1286.54C4965.95 1381.07 4920.91 1495.23 4795.11 1590.99L4795.72 1591.78ZM4795.72 1098.38L4795.91 1097.39C4705.02 1079.57 4596.52 1117.82 4489.12 1178.15C4381.69 1238.5 4275.14 1321.08 4188.09 1392.23L4188.72 1393L4189.35 1393.78C4276.39 1322.64 4382.82 1240.16 4490.1 1179.89C4597.43 1119.61 4705.38 1081.68 4795.53 1099.36L4795.72 1098.38ZM4188.72 1393L4189.67 1392.69L4001.53 828.281L4000.58 828.598L3999.64 828.914L4187.77 1393.32L4188.72 1393ZM4000.58 828.598L4001.22 829.369C4175.44 685.891 4406.27 620.923 4612.9 595.596C4819.52 570.27 5001.81 584.599 5078.8 599.601L5078.99 598.619L5079.18 597.637C5001.96 582.592 4819.47 568.261 4612.66 593.611C4405.85 618.96 4174.58 684.004 3999.95 827.826L4000.58 828.598ZM5078.99 598.619L5078.75 599.59C5237.26 638.634 5333.92 724.719 5389.81 831.862C5445.72 939.048 5460.87 1067.39 5456.18 1190.94C5451.5 1314.49 5426.97 1433.17 5403.62 1520.97C5391.94 1564.87 5380.55 1601.04 5372.09 1626.24C5367.86 1638.84 5364.36 1648.69 5361.91 1655.39C5360.69 1658.75 5359.74 1661.31 5359.08 1663.03C5358.76 1663.9 5358.51 1664.55 5358.34 1664.99C5358.26 1665.2 5358.19 1665.37 5358.15 1665.48C5358.13 1665.53 5358.12 1665.57 5358.1 1665.6C5358.1 1665.62 5358.1 1665.63 5358.09 1665.63C5358.09 1665.64 5358.09 1665.64 5359.02 1666.01C5359.95 1666.37 5359.95 1666.37 5359.96 1666.36C5359.96 1666.35 5359.96 1666.34 5359.97 1666.33C5359.98 1666.3 5360 1666.26 5360.02 1666.2C5360.06 1666.09 5360.12 1665.92 5360.21 1665.7C5360.38 1665.26 5360.63 1664.61 5360.96 1663.74C5361.61 1662.01 5362.57 1659.44 5363.79 1656.08C5366.24 1649.36 5369.75 1639.49 5373.99 1626.88C5382.46 1601.65 5393.86 1565.43 5405.55 1521.48C5428.93 1433.6 5453.49 1314.76 5458.18 1191.02C5462.88 1067.28 5447.72 938.553 5391.58 830.937C5335.42 723.278 5238.29 636.828 5079.23 597.648L5078.99 598.619ZM5359.02 1666.01L5359.22 1666.98L5860.96 1562.53L5860.76 1561.55L5860.55 1560.57L5358.82 1665.03L5359.02 1666.01ZM5860.76 1561.55L5861.75 1561.67L5923.06 1045.4L5922.07 1045.29L5921.07 1045.17L5859.77 1561.43L5860.76 1561.55ZM5922.07 1045.29V1044.29H5587.3V1045.29V1046.29H5922.07V1045.29ZM5587.3 1045.29H5588.3V563.963H5587.3H5586.3V1045.29H5587.3ZM5587.3 563.963V564.963H7392.48V563.963V562.963H5587.3V563.963ZM7392.48 563.963L7393.48 563.995L7393.48 563.965L7392.48 563.932L7391.48 563.9L7391.48 563.93L7392.48 563.963ZM7392.48 563.932V564.932H8877.88V563.932V562.932H7392.48V563.932ZM8877.88 563.932H8878.88V563.812H8877.88H8876.88V563.932H8877.88ZM8877.88 563.812L8877.88 564.812L8935.46 564.932L8935.46 563.932L8935.46 562.932L8877.88 562.812L8877.88 563.812Z" fill="#FFF0D7"/>
<path fill-rule="evenodd" clip-rule="evenodd" d="M19099.1 4012.62L19105.2 3627.32L20786.2 3650.88L20804.4 4007.46L20648.2 4003.45L20832 5951.11L20375.9 5939.4L19588.1 4523.13L19722.1 5922.63L19101.4 5906.7L19267.6 3968.02L19099.1 4012.62ZM19617.3 3995.58L20274.9 3960.61L20353.3 5130.73L19617.3 3995.58Z" fill="#FF188C"/>
<path fill-rule="evenodd" clip-rule="evenodd" d="M17358.7 4779.42L17397.2 4048.63L17778 3618.16L18588 3638.94L18893.5 3879.62L18949.5 4760.57L18840.6 5511.08L18436.1 5934.09L17880 5919.82L17559.7 5497.78L17358.7 4779.42ZM17753.5 4243.65L17746.1 4707.19L18041.5 5392.74L18326.8 5400.06L18502 5127.69L18571.4 4680.43L18433.3 4075.22L17910 4026.57L17753.5 4243.65Z" fill="#FF188C"/>
<path fill-rule="evenodd" clip-rule="evenodd" d="M13455.7 5955L12846 5629.23L13011.9 5215.74L13149.6 4538.37L13133.1 4074.22L12869.9 4123.23L12913.1 3680.18L14421.8 3646.5L14443.5 4028.6L14288.9 4024.64L14690.8 5901.58L13934.8 5924.25L14021.7 5199.59L13493.3 5329.84L13455.7 5955ZM13594.3 4006.81L13472.7 4881.24L13999.5 4804.76L13895.1 4014.53L13594.3 4006.81Z" fill="#FF188C"/>
<path fill-rule="evenodd" clip-rule="evenodd" d="M17170.9 3717.04L16177.9 3691.56L16189.8 4104.72L16505.2 4058.03L16482.8 5470.14L16168.8 5422.95L16223.5 5518.28L16248.6 5877.96L17217.7 5902.83L17182.5 5405.92L16918 5442.18L16878.8 4035.33L17179.7 4130.12L17170.9 3717.04Z" fill="#FF188C"/>
<path fill-rule="evenodd" clip-rule="evenodd" d="M16110.9 3689.85L14534.1 3649.38L14525.3 4209.73L15156 4126.13L15030.2 5846.7L15654 5862.71L15531.4 4135.76L16104.1 4121.11L16110.9 3689.85Z" fill="#FF188C"/>
<path fill-rule="evenodd" clip-rule="evenodd" d="M10948.2 4048.48L10954.1 3672.96L12718.5 3675.19L12732.8 4034.6L12598.5 4060.5L12727.1 4392.52L12720.7 4801.29L12427.5 5088.24L12199.9 5082.4L12878.6 5855.08L12137.2 5878.12L11652 4744.52L12093.8 4785.21L12264 4632.06L12270.5 4218.4L12166.3 4049.41C12052 4056.59 11782.6 4069.9 11618.9 4065.7C11455.2 4061.5 11437.1 4177.12 11448.5 4235.46L11657.3 5865.81L10990.4 5848.7L11072.8 4051.68L10948.2 4048.48Z" fill="#FF188C"/>
<path fill-rule="evenodd" clip-rule="evenodd" d="M9884.6 4106.31L9775.96 5860.58L10419.8 5877.1L10293.4 4092.34L10900.9 4072.71L10907.2 3671.76L9305.04 3630.65L9296.93 4141.12L9884.6 4106.31Z" fill="#FF188C"/>
<path fill-rule="evenodd" clip-rule="evenodd" d="M9151.77 4269.47L8702.94 4380.24L8556.63 4047.77L8002.42 4107.9L7856.56 4183.41L7888.39 4359.34L7996.16 4502.01L8748.28 4578.05L9182.07 4978.55C9182.07 4978.55 9106.56 5469.36 9131.09 5572.06L8438.67 5855.61L7925.71 5886.48L7508.14 5530.41L7375.26 5224.7L7842.21 5087L8034.18 5355.1L8411.84 5364.79L8627.47 5256.84L8661.01 5082.58L8542.48 4939.64L7583.22 4727.19L7386.98 4486.37L7414 4092.81L7599.8 3682.77L7900.53 3594.61L8890.45 3620.01L9068.8 3873.08L9151.77 4269.47Z" fill="#FF188C"/>
<path fill-rule="evenodd" clip-rule="evenodd" d="M7259.93 3619.26L6176.94 3591.47L6200.25 4061.66L6542.18 3996.08L6484.45 5451.32L6178.32 5443.46L6220.46 5842.72L7254.99 5869.27L7231.86 5387.34L6938.71 5434.6L6961.37 4006.84L7252.48 4088.66L7259.93 3619.26Z" fill="#FF188C"/>
<path fill-rule="evenodd" clip-rule="evenodd" d="M5954.65 4215.8L5515.61 4291.61L5369.55 4040.35L4980.35 4030.36L4587.99 4267.81C4587.05 4424.31 4583.65 4774.27 4577.61 4922.03C4570.06 5106.74 4677.35 5376.58 4958.86 5383.8C5184.08 5389.58 5349.55 5267.95 5404.13 5206.41L5462.15 4944.73L5907.75 5037.37L5848.03 5406.62L5892.01 6028.98L5391.82 5981.9L5395.95 5721.77L5247.92 5885.27L4717.38 5908.83L4409.88 5696.47L4118.16 5362.23L4194.67 3935.85L4754.74 3554.98L5526.99 3574.79L5873.24 3818.47L5954.65 4215.8Z" fill="#FF188C"/>
<path fill-rule="evenodd" clip-rule="evenodd" d="M5944.56 4851.45L5950.04 4506.25L4941.24 4506.77L4861.38 4981.17L5379.57 4863.37L5944.56 4851.45Z" fill="#FF188C"/>
<path fill-rule="evenodd" clip-rule="evenodd" d="M2362.43 4814.32L2177.95 3590.6L3960.88 3636.35L4010.96 4165.93L2759.23 4006.63L2715.71 4615L3701.4 4374.19L3624.6 4897.58L2743.18 5017.8L2761.13 5437.96L3995.01 5170.25L3881.29 5887.38L2233.61 5900.86L2362.43 4814.32Z" fill="#FF188C"/>
<path fill-rule="evenodd" clip-rule="evenodd" d="M0 4046.38L209.983 4051.76L57.0854 5879.25L755.492 5897.17C685.526 5376.54 549.935 4294.5 567.299 4131.37C584.663 3968.24 1062.15 3981.34 1298.72 4008.28L1462.64 4201.31L1455.78 4633.55L1286.37 4786.71L805.735 4719.59L1300.06 5911.15L2072.31 5930.96L1362.15 5102.69L1639.82 5109.82L1961.03 4749.23L1965.78 4449.99L1830.84 3982.81L1973.14 3986.46L1979.5 3585.51L44.4029 3575.97L0 4046.38Z" fill="#FF188C"/>
</svg>
